<svg width="120" height="133" viewBox="0 0 120 133" fill="none" xmlns="http://www.w3.org/2000/svg">
<path d="M37.4315 132C37.4315 132 113.96 103.475 55.1482 33.5811C47.9564 25.0341 46.8492 5.92856 64.2827 1.57658C81.7162 -2.77541 83.7026 18.937 83.7026 18.937C83.7026 18.937 91.2136 2.46108 98.7449 1.57658C117.18 -0.588513 128.996 28.9123 107.334 44.5327C70.1746 71.3282 46.5843 111.896 44.6085 109.943C23.0263 88.6141 -24.3144 34.77 18.0234 30.8649C31.5924 29.6133 39.667 44.5327 39.667 44.5327C39.667 44.5327 51.2114 13.2919 71.8873 28.9123C92.5632 44.5327 61.056 63.8457 44.6085 96.0628" stroke="#D64E52" stroke-width="1.5"/>
</svg>
