<svg width="189" height="153" viewBox="0 0 189 153" fill="none" xmlns="http://www.w3.org/2000/svg">
<path d="M0.654297 151.174C0.654297 151.174 61.9396 154.228 83.9098 141.633C105.88 129.039 28.7916 126.749 50.3764 121.405C71.9611 116.062 81.5972 118.352 89.6915 118.734C97.7858 119.115 112.047 103.849 112.047 103.849C112.047 103.849 191.063 12.2521 187.208 8.43557C183.354 4.61907 178.343 0.0391168 176.031 1.94744C173.718 3.85577 169.863 9.58049 173.332 8.43557C176.801 7.29066 180.27 14.1604 180.27 14.1604C180.27 14.1604 174.489 8.43562 170.634 10.7255C166.78 13.0154 162.926 16.4503 166.009 17.5953C169.093 18.7403 173.332 23.3201 173.332 23.3201C173.332 23.3201 167.165 17.5953 162.926 19.8852C158.686 22.1751 103.182 94.6896 103.182 94.6896C103.182 94.6896 102.026 97.7429 105.495 94.6896C108.964 91.6363 164.082 23.3201 166.009 23.3201C167.936 23.3201 114.672 100.796 110.505 101.178C106.339 101.559 105.495 94.6896 103.182 97.7428C101.826 99.5332 98.5659 103.662 97.7858 106.139C97.2355 107.887 98.9421 108.429 98.9421 108.429C98.9421 108.429 96.244 106.902 96.244 108.047C96.244 109.192 95.4731 113.391 95.4731 113.391" stroke="#D64E52" stroke-width="1.5"/>
</svg>
