<svg width="116" height="190" viewBox="0 0 116 190" fill="none" xmlns="http://www.w3.org/2000/svg">
<path d="M98.4258 10.5C143.426 61.3873 83.8668 87.6158 75.4344 87.6158C67.0021 87.6158 53.0887 84.3464 60.2562 72.2286C67.4237 60.1108 78.8074 70.4765 80.4938 65.0125C84.3598 52.4871 48.1959 15.9648 67.0021 7.01137C93.486 -5.59733 45.7802 4.06926 35.8023 13.7361C25.8245 23.403 17.64 28.4465 27.7594 29.2871C37.8788 30.1277 31.975 47.7802 31.975 47.7802C28.2409 55.2252 12.5812 47.3599 31.975 54.0847C51.3689 60.8095 27.7594 37.6931 27.7594 37.6931C27.7594 37.6931 14.9062 59.5486 4.03643 61.3873C-6.83337 63.2259 13.9925 74.2872 17.5784 72.2286C19.9267 70.8725 19.983 62.2515 17.4096 61.3873C13.0925 59.9399 8.53635 71.8281 6.20905 75.7346C5.82937 76.367 4.47939 77.3295 4.38799 78.0673C4.24736 79.1985 5.41453 81.4328 6.22311 82.2338C8.99336 84.981 21.9869 88.9648 20.7213 87.6158C20.1377 86.9905 15.3776 85.3604 12.4527 82.1424C11.398 80.9831 9.7246 77.4209 8.06526 76.9009C4.29658 75.7276 2.98177 79.051 6.76451 82.7045C7.52387 83.4352 3.18567 84.988 3.69191 87.9179C4.2544 91.164 19.1393 91.3747 20.5806 88.4097C20.5806 88.4097 7.76292 83.3931 7.01763 83.5125C4.6833 83.8849 3.10129 86.2808 4.03643 88.4519C5.04891 90.8056 5.26688 93.068 5.10516 94.3187C4.80283 96.6935 -0.751758 101.24 2.55287 106.924C4.15596 109.678 11.841 110.985 14.9065 110.093C25.8891 106.903 39.7123 107.17 47.6856 99.6024C52.8745 94.6771 46.3989 80.1962 45.7802 74.0694C45.3653 69.917 46.0333 60.5301 48.9723 57.558C50.5543 55.9561 53.2331 55.5907 53.9644 57.7196C56.7206 65.7856 31.4507 71.8843 27.7594 79.5709C12.973 110.359 42.8248 120.493 49.4574 134.782C56.09 149.072 48.0559 161.681 41.7316 170.087C35.4073 178.493 14.9065 189 14.9065 189" stroke="#D64E52" stroke-width="1.5" stroke-miterlimit="10"/>
</svg>
