<svg width="342" height="178" viewBox="0 0 342 178" fill="none" xmlns="http://www.w3.org/2000/svg">
<path d="M1 60.9778C1 60.9778 139.478 78.4556 151.578 60.9778C158.785 50.5676 165.038 24.8946 168.917 5.83366C170.053 0.248799 178.281 -0.269742 179.97 5.17347L196.115 57.194C196.813 59.4442 198.895 60.9778 201.251 60.9778H260.746C265.887 60.9778 268.097 67.499 264.016 70.6249L216.536 106.993C214.681 108.414 213.955 110.87 214.741 113.071L234.503 168.403C236.278 173.372 230.578 177.659 226.296 174.576L176.263 138.552C174.371 137.19 171.816 137.202 169.937 138.583L119.305 175.782C115.237 178.77 109.752 175.05 111.11 170.188C115.618 154.044 123.445 127.787 131.411 109.378C155.611 53.4538 253.756 142.989 341.145 116.1" stroke="#D64E52" stroke-width="1.5"/>
</svg>
