<svg width="147" height="436" viewBox="0 0 147 436" fill="none" xmlns="http://www.w3.org/2000/svg">
<path d="M142.241 1C142.241 1 152.645 73.8074 138.836 88.2539C136.848 90.3313 101.913 54.9823 88.995 60.1441C86.895 60.991 90.1404 66.2806 92.3835 66.6322C102.66 68.2622 138.502 57.4114 137.85 76.7638C137.595 84.2108 110.885 104.186 110.885 104.186C111.506 89.1488 93.4175 79.0171 100.306 76.1086C108.165 72.7847 110.646 119.08 110.233 127.646C109.517 142.06 105.969 157.338 98.4287 162.611C79.259 175.971 19.8725 202.499 21.6702 227.972C22.5133 239.813 50.4805 258.782 60.2801 252.134C88.995 232.686 69.3002 219.726 76.9045 211.975C80.0862 208.731 91.5244 208.811 93.5289 204.72C95.5493 200.597 93.5607 187.381 89.0109 186.886C86.4973 186.614 82.8861 194.013 84.477 195.995C87.1019 199.271 98.2378 195.212 100.72 191.824C103.281 188.324 101.754 178.4 104.124 174.757C106.526 171.049 119.03 168.908 118.473 164.513C117.98 160.582 108.419 156.747 106.176 160.007C102.549 165.296 106.176 180.941 124.9 173.238C133.284 169.787 125.664 159.335 124.9 136.819C124.391 121.845 124.471 86.0805 111.68 78.3939C74.0887 55.8133 59.4051 71.2825 49.3669 83.3318C43.083 90.8747 41.1899 127.694 36.1469 140.83C31.263 153.582 1.78455 168.924 1.02094 182.555C-0.188106 204.193 51.3714 233.086 48.9851 254.627C48.126 262.298 27.9859 266.293 27.8268 273.373C27.6359 282.769 51.8168 297.407 59.9301 292.725C65.2436 289.641 65.3708 270.033 59.5483 268.067C49.7805 264.775 39.4718 291.814 34.2061 300.699C33.347 302.138 30.2926 304.327 30.0858 306.005C29.7676 308.578 32.4084 313.66 34.2379 315.481C40.5058 321.73 69.9048 330.791 67.0412 327.723C65.7208 326.3 54.9508 322.593 48.3328 315.274C45.9466 312.637 42.1603 304.535 38.4059 303.352C29.879 300.683 26.9041 308.242 35.4629 316.552C37.181 318.214 27.3654 321.746 28.5108 328.41C29.7835 335.793 63.4618 336.272 66.7231 329.528C66.7231 329.528 37.7219 318.118 36.0356 318.39C30.7539 319.237 27.1745 324.686 29.2903 329.624C31.5812 334.978 32.0743 340.123 31.7084 342.968C31.0244 348.369 18.4567 358.709 25.9336 371.637C29.5608 377.901 46.9488 380.874 53.8849 378.844C78.734 371.589 110.01 372.196 128.05 354.985C139.791 343.783 125.139 310.847 123.739 296.912C122.801 287.468 124.312 266.117 130.962 259.358C134.541 255.714 140.602 254.883 142.257 259.725C148.493 278.071 91.3176 291.942 82.9656 309.425C49.5101 379.452 132.059 435 132.059 435" stroke="#D64E52" stroke-width="1.5" stroke-miterlimit="10"/>
</svg>
