<svg width="248" height="525" viewBox="0 0 248 525" fill="none" xmlns="http://www.w3.org/2000/svg">
<path d="M174.963 269.145C174.963 269.145 165.92 200.084 137.903 192.34C131.817 190.661 114.406 195.512 114.49 201.816C114.538 205.139 123.396 209.955 126.514 207.499C135.773 200.215 143.356 175.059 143.559 160.928C143.679 152.347 132.846 139.913 132.846 139.913C132.846 139.913 147.055 142.524 151.196 140.546C154.051 139.184 160.347 133.191 158.791 130.442C154.213 122.357 117.015 127.496 126.197 128.978C130.524 129.677 142.835 136.387 147.252 133.364C149.658 131.715 144.068 128.554 145.504 126.02C147.438 122.62 155.877 119.059 156.894 115.283C158.48 109.397 147.713 97.5901 149.933 91.9076C155.613 77.3877 173.239 81.3195 173.239 81.3195C173.239 81.3195 166.734 73.2887 149.933 72.9601C142.057 72.8047 148.575 45.5217 155.625 42.0083C161.64 39.0147 176.214 48.2524 179.667 54.0126C182.594 58.8944 179.859 71.1257 179.033 76.7544C178.416 80.9609 173.072 89.2128 174.604 93.1803C179.165 105.017 174.945 113.801 170.331 125.763C166.793 134.935 156.26 150.573 149.969 158.131C145.349 163.682 140.674 168.307 133.474 168.982C107.966 171.384 56.7097 129.39 54.3815 103.918C54.0224 100.01 52.9631 94.0169 56.8474 94.5965C82.3618 98.4027 47.7979 123.995 104.997 186.669C115.046 197.681 88.5504 228.245 83.487 242.257C67.4948 286.51 58.7506 401.067 68.9372 429.868C72.0375 438.645 54.9501 437.904 53.4119 414.959C52.2089 397.081 56.7456 367.48 64.5083 366.697C92.7579 363.853 82.0985 405.704 106.266 402.071C190.147 389.469 177.764 291.821 177.764 291.821C177.764 291.821 159.294 302.971 159.498 311.116C161.317 383.751 90.6033 354.502 79.058 350.271C72.8575 347.995 92.6023 365.353 98.6712 367.958C109.893 372.774 143.547 366.906 147.39 371.746C153.884 379.927 143.14 402.913 139.795 412.808C125.556 454.916 160.3 465.295 160.3 465.295C160.3 465.295 134.211 435.132 161.311 383.751C180.212 347.905 228.176 281.956 240.404 242.251C244.163 230.037 245.844 200.299 207.504 203.089C180.523 205.049 124.317 209.267 101.209 223.303C97.6597 225.454 90.4536 235.935 90.4536 235.935C90.4536 235.935 81.5598 227.683 77.8012 226.458C62.5811 221.499 24.9947 227.116 15.1612 239.723C2.51476 255.934 18.3274 321.841 18.3274 321.841C18.3274 321.841 69.8111 264.025 54.3935 251.722C39.8557 240.124 32.7843 261.821 30.3514 269.408C24.9132 286.369 32.4761 309.359 27.1853 321.208C23.4446 329.597 1.35964 338.387 1.35964 338.387C1.35964 338.387 -3.68579 378.672 24.0192 383.117C35.6302 384.982 65.9268 360.883 58.8165 351.532C53.9626 345.145 34.1519 360.985 31.6083 368.586C18.5727 407.562 90.4536 522.084 90.4536 522.084C90.4536 522.084 119.314 383.482 188.394 390.413C205.397 392.122 169.6 442.165 169.6 442.165C169.6 442.165 224.382 443.569 244.205 393.849C252.236 373.706 241.218 328.486 233.078 308.385C220.414 277.116 161.742 221.857 162.837 188.145C163.903 155.263 215.404 115.163 213.675 78.9294C210.431 10.7099 140.555 -3.57687 111.611 2.14144C68.4405 10.6741 48.0074 70.809 95.5948 109.086C119.954 128.679 22.5049 74.1133 38.5031 54.395C95.924 -16.3878 -10.4729 102.263 64.3048 150.686C80.9553 161.471 92.9255 214.43 92.9255 214.43" stroke="#D64E52" stroke-width="1.5" stroke-miterlimit="10"/>
</svg>
