<svg width="174" height="30" viewBox="0 0 174 30" fill="none" xmlns="http://www.w3.org/2000/svg">
<path d="M173.584 1.60172L168.556 11.9966L162.068 2.44494L173.584 1.60172ZM93.0461 28.2795L93.0042 27.2804L93.0461 28.2795ZM1.15402 1.60176C1.67108 0.745814 1.67106 0.745802 1.67105 0.745792C1.67104 0.745791 1.67103 0.745782 1.67103 0.745779C1.67102 0.745773 1.67101 0.745773 1.67102 0.745778C1.67104 0.745788 1.67109 0.74582 1.67118 0.745874C1.67136 0.745982 1.67168 0.746177 1.67215 0.746459C1.67309 0.747023 1.6746 0.747936 1.67669 0.749196C1.68088 0.751713 1.68737 0.755615 1.69615 0.760881C1.71371 0.771412 1.74042 0.787397 1.77616 0.808674C1.84763 0.851228 1.95518 0.914946 2.0977 0.998526C2.38275 1.16569 2.80768 1.41229 3.36367 1.72792L2.37632 3.46721C1.81185 3.14677 1.37879 2.89547 1.08597 2.72375C0.939559 2.63789 0.8282 2.57192 0.753 2.52715C0.715399 2.50476 0.686837 2.48767 0.667452 2.47604C0.657759 2.47023 0.650361 2.46578 0.645273 2.46272C0.64273 2.46119 0.640764 2.46001 0.639378 2.45917C0.638685 2.45875 0.638137 2.45842 0.637735 2.45818C0.637533 2.45806 0.637368 2.45796 0.63724 2.45788C0.637175 2.45784 0.63712 2.45781 0.637074 2.45778C0.637051 2.45777 0.637023 2.45775 0.637012 2.45774C0.636986 2.45773 0.636963 2.45771 1.15402 1.60176ZM6.88105 3.66511C7.92744 4.22598 9.1183 4.85185 10.4416 5.52851L9.53101 7.30921C8.19572 6.6264 6.99343 5.99453 5.93622 5.42786L6.88105 3.66511ZM14.0522 7.3341C15.19 7.89063 16.3947 8.46838 17.6615 9.06161L16.8133 10.8728C15.5359 10.2746 14.321 9.692 13.1734 9.1307L14.0522 7.3341ZM21.3274 10.7408C22.5121 11.2715 23.7393 11.8096 25.0059 12.3515L24.2192 14.1903C22.9419 13.6438 21.7044 13.1012 20.5098 12.5661L21.3274 10.7408ZM28.7084 13.8986C29.9236 14.3942 31.1689 14.89 32.4418 15.3834L31.719 17.2483C30.4349 16.7505 29.1788 16.2503 27.9532 15.7505L28.7084 13.8986ZM36.2022 16.8024C37.4423 17.2576 38.7047 17.7083 39.9875 18.1522L39.3334 20.0422C38.0385 19.5941 36.7644 19.1392 35.513 18.6799L36.2022 16.8024ZM43.7966 19.4295C45.0577 19.8388 46.3357 20.2399 47.6288 20.6309L47.05 22.5453C45.7436 22.1503 44.4527 21.7452 43.1792 21.3319L43.7966 19.4295ZM51.4837 21.7524C52.7639 22.1101 54.0567 22.4565 55.3607 22.7897L54.8655 24.7274C53.5467 24.3904 52.2395 24.0402 50.9455 23.6787L51.4837 21.7524ZM59.259 23.7379C60.5564 24.0373 61.8631 24.3224 63.1776 24.5916L62.7764 26.5509C61.4452 26.2783 60.1223 25.9897 58.8093 25.6867L59.259 23.7379ZM67.1153 25.3448C68.428 25.5779 69.7468 25.7938 71.0704 25.991L70.7758 27.9692C69.4332 27.7692 68.096 27.5502 66.7657 27.314L67.1153 25.3448ZM75.0407 26.5229C76.3654 26.6803 77.6935 26.8174 79.0235 26.9329L78.8505 28.9254C77.4988 28.8081 76.1498 28.6687 74.8049 28.509L75.0407 26.5229ZM83.0154 27.2124C84.3475 27.2829 85.6802 27.3301 87.0122 27.3525L86.9785 29.3523C85.6218 29.3294 84.265 29.2814 82.9097 29.2096L83.0154 27.2124ZM91.0088 27.3437C91.6746 27.3293 92.3397 27.3082 93.0042 27.2804L93.088 29.2786C92.4098 29.3071 91.7312 29.3285 91.0522 29.3432L91.0088 27.3437ZM93.0042 27.2804C93.6541 27.2531 94.3016 27.2213 94.9467 27.1851L95.0589 29.182C94.4043 29.2187 93.7474 29.251 93.088 29.2786L93.0042 27.2804ZM98.8112 26.9137C100.107 26.8045 101.392 26.678 102.667 26.5353L102.889 28.5229C101.597 28.6676 100.293 28.7959 98.9791 28.9066L98.8112 26.9137ZM106.511 26.0524C107.801 25.8728 109.078 25.6773 110.342 25.4671L110.67 27.44C109.389 27.6531 108.094 27.8512 106.787 28.0333L106.511 26.0524ZM114.157 24.782C115.438 24.535 116.703 24.2736 117.954 23.9993L118.383 25.9528C117.116 26.2307 115.833 26.4955 114.536 26.7458L114.157 24.782ZM121.731 23.1214C123.001 22.8098 124.253 22.4857 125.487 22.1507L126.011 24.0808C124.761 24.4201 123.494 24.7482 122.208 25.0638L121.731 23.1214ZM129.219 21.0894C130.476 20.7159 131.711 20.3321 132.926 19.9397L133.541 21.8429C132.312 22.2399 131.061 22.6284 129.789 23.0065L129.219 21.0894ZM136.605 18.704C137.847 18.2708 139.064 17.8303 140.254 17.3844L140.955 19.2573C139.751 19.7084 138.52 20.1542 137.264 20.5924L136.605 18.704ZM143.869 15.9836C145.093 15.4932 146.286 14.9994 147.445 14.5047L148.23 16.3443C147.057 16.8446 145.851 17.3442 144.613 17.8402L143.869 15.9836ZM151.009 12.9368C152.225 12.3854 153.398 11.8367 154.525 11.2945L155.392 13.0969C154.251 13.6455 153.065 14.2005 151.835 14.7582L151.009 12.9368ZM157.998 9.57537C159.21 8.9581 160.357 8.35552 161.435 7.77391L162.385 9.53419C161.293 10.123 160.133 10.7329 158.906 11.3576L157.998 9.57537ZM164.831 5.88789C166.075 5.1763 167.188 4.51608 168.162 3.92271L169.202 5.63062C168.213 6.23318 167.085 6.90279 165.824 7.62391L164.831 5.88789Z" fill="url(#paint0_linear_1_1136)"/>
<defs>
<linearGradient id="paint0_linear_1_1136" x1="33.2859" y1="31.6134" x2="112.532" y2="49.5997" gradientUnits="userSpaceOnUse">
<stop stop-color="#D64E52"/>
<stop offset="1" stop-color="#D13B83"/>
</linearGradient>
</defs>
</svg>
