<svg width="198" height="44" viewBox="0 0 198 44" fill="none" xmlns="http://www.w3.org/2000/svg">
<path d="M197.224 32.5624L193.427 21.6576L185.882 30.3983L197.224 32.5624ZM99.0344 1.66545L99.0259 0.665485L99.0344 1.66545ZM1.4535 42.5069C2.20902 43.162 2.20899 43.1621 2.20897 43.1621C2.20896 43.1621 2.20893 43.1621 2.20892 43.1622C2.20889 43.1622 2.20887 43.1622 2.20885 43.1622C2.20882 43.1623 2.20882 43.1623 2.20884 43.1622C2.20888 43.1622 2.20903 43.162 2.20929 43.1617C2.2098 43.1611 2.21074 43.1601 2.2121 43.1585C2.21483 43.1554 2.21924 43.1503 2.22536 43.1434C2.23758 43.1294 2.25657 43.1079 2.28232 43.0789C2.33381 43.021 2.4123 42.9335 2.51764 42.8181C2.72832 42.5873 3.04636 42.2449 3.47048 41.8049L2.03054 40.4169C1.59337 40.8704 1.2629 41.2261 1.0404 41.4699C0.929149 41.5917 0.844883 41.6857 0.787762 41.7499C0.759201 41.782 0.737425 41.8067 0.722455 41.8238C0.71497 41.8323 0.709186 41.8389 0.705105 41.8436C0.703065 41.8459 0.701451 41.8478 0.700263 41.8492C0.699669 41.8498 0.699181 41.8504 0.6988 41.8508C0.69861 41.8511 0.698446 41.8512 0.698309 41.8514C0.69824 41.8515 0.698179 41.8516 0.698123 41.8516C0.698096 41.8517 0.698059 41.8517 0.698045 41.8517C0.698011 41.8518 0.697978 41.8518 1.4535 42.5069ZM6.20109 39.1084C7.02377 38.3304 7.97172 37.4608 9.04324 36.518L7.72212 35.0164C6.63189 35.9757 5.66624 36.8615 4.82683 37.6554L6.20109 39.1084ZM11.9844 34.0144C12.9172 33.2456 13.9152 32.446 14.9777 31.6227L13.7527 30.0418C12.6739 30.8777 11.6603 31.6898 10.7124 32.471L11.9844 34.0144ZM18.0561 29.3085C19.0605 28.5759 20.1113 27.8308 21.2079 27.0778L20.0758 25.4291C18.9631 26.1931 17.8969 26.9491 16.8775 27.6926L18.0561 29.3085ZM24.4155 24.9407C25.4656 24.2619 26.5516 23.5802 27.6733 22.8984L26.6345 21.1894C25.4968 21.8809 24.3951 22.5724 23.3298 23.2609L24.4155 24.9407ZM30.9893 20.945C32.0831 20.3208 33.2066 19.6992 34.3599 19.0825L33.4167 17.3188C32.247 17.9443 31.1074 18.5749 29.998 19.2079L30.9893 20.945ZM37.7818 17.3127C38.9132 16.7472 40.0703 16.188 41.2529 15.6371L40.4084 13.8241C39.2088 14.3829 38.0352 14.9501 36.8876 15.5237L37.7818 17.3127ZM44.7654 14.0596C45.9258 13.5576 47.1088 13.0646 48.3141 12.5824L47.5711 10.7255C46.3484 11.2147 45.1484 11.7148 43.9713 12.224L44.7654 14.0596ZM51.9037 11.2035C53.0933 10.7654 54.303 10.3385 55.5327 9.92406L54.8941 8.02878C53.6465 8.44917 52.4193 8.88229 51.2125 9.32672L51.9037 11.2035ZM59.1996 8.74516C60.4157 8.37282 61.6501 8.01329 62.9027 7.66781L62.3709 5.7398C61.1001 6.0903 59.8478 6.45504 58.6141 6.83279L59.1996 8.74516ZM66.6309 6.69537C67.8617 6.39265 69.1091 6.10387 70.3728 5.83012L69.9493 3.87546C68.6673 4.15317 67.4019 4.44614 66.1533 4.75326L66.6309 6.69537ZM74.1442 5.06793C75.3957 4.83308 76.6624 4.61324 77.9443 4.4094L77.6302 2.43421C76.3299 2.64099 75.0449 2.864 73.7754 3.10224L74.1442 5.06793ZM81.7587 3.85679C83.0161 3.69231 84.2873 3.54342 85.5724 3.41098L85.3673 1.42152C84.064 1.55584 82.7747 1.70685 81.4993 1.87368L81.7587 3.85679ZM89.409 3.06836C90.6825 2.97208 91.9688 2.89209 93.268 2.82919L93.1713 0.831533C91.854 0.89531 90.5496 0.976416 89.2582 1.07406L89.409 3.06836ZM97.0999 2.69478C97.7445 2.68073 98.3922 2.67091 99.0428 2.66541L99.0259 0.665485C98.3664 0.671057 97.7098 0.681014 97.0563 0.69526L97.0999 2.69478ZM99.0428 2.66541C99.7227 2.65967 100.399 2.65748 101.072 2.65876L101.076 0.658763C100.396 0.657465 99.7127 0.659682 99.0259 0.665485L99.0428 2.66541ZM105.071 2.70765C106.429 2.73838 107.773 2.78325 109.102 2.84162L109.19 0.843548C107.847 0.784559 106.489 0.739214 105.116 0.708166L105.071 2.70765ZM113.116 3.06119C114.464 3.14954 115.795 3.25169 117.111 3.36691L117.285 1.37454C115.955 1.25805 114.609 1.15478 113.247 1.06547L113.116 3.06119ZM121.105 3.76168C122.455 3.91036 123.788 4.07271 125.102 4.24785L125.366 2.26536C124.037 2.08823 122.69 1.92405 121.324 1.7737L121.105 3.76168ZM129.077 4.82413C130.414 5.03383 131.732 5.2566 133.03 5.49146L133.386 3.52341C132.073 3.28578 130.74 3.06041 129.387 2.84827L129.077 4.82413ZM136.961 6.25087C138.292 6.52451 139.601 6.81056 140.888 7.10787L141.339 5.15917C140.036 4.85825 138.711 4.56874 137.364 4.29184L136.961 6.25087ZM144.794 8.0607C146.112 8.39933 147.404 8.7493 148.672 9.10921L149.218 7.18525C147.934 6.82082 146.626 6.4665 145.292 6.12369L144.794 8.0607ZM152.519 10.2544C153.82 10.6595 155.092 11.0744 156.335 11.4974L156.979 9.60387C155.719 9.17544 154.431 8.75522 153.114 8.34494L152.519 10.2544ZM160.116 12.839C161.398 13.3127 162.646 13.7939 163.86 14.2803L164.604 12.4237C163.373 11.9307 162.108 11.4431 160.81 10.9631L160.116 12.839ZM167.562 15.8219C168.821 16.3663 170.039 16.9146 171.217 17.4636L172.062 15.651C170.868 15.0941 169.633 14.5383 168.357 13.9862L167.562 15.8219ZM174.815 19.2046C176.057 19.8277 177.247 20.4482 178.383 21.0617L179.333 19.3018C178.179 18.6789 176.972 18.0493 175.712 17.417L174.815 19.2046ZM181.883 23.0217C183.099 23.7285 184.241 24.4192 185.307 25.0867L186.369 23.3914C185.284 22.7125 184.124 22.0104 182.887 21.2924L181.883 23.0217ZM188.655 27.265C189.886 28.0989 190.975 28.8738 191.919 29.5714L193.107 27.9627C192.142 27.2494 191.031 26.4587 189.776 25.6089L188.655 27.265Z" fill="url(#paint0_linear_1_1137)"/>
<defs>
<linearGradient id="paint0_linear_1_1137" x1="33.0941" y1="1.73577" x2="121.454" y2="-25.2245" gradientUnits="userSpaceOnUse">
<stop stop-color="#D64E52"/>
<stop offset="1" stop-color="#D13B83"/>
</linearGradient>
</defs>
</svg>
