<svg width="220" height="30" viewBox="0 0 220 30" fill="none" xmlns="http://www.w3.org/2000/svg">
<g clip-path="url(#clip0_47_171)">
<g clip-path="url(#clip1_47_171)">
<path d="M8.06713 0.600098H19.5096C23.6229 0.600098 26.9884 3.98391 26.9884 8.11968V21.8805C26.9884 26.0163 23.6229 29.4001 19.5096 29.4001H8.06713C3.95382 29.4001 0.588379 26.0163 0.588379 21.8805V8.11968C0.588379 3.98391 3.95382 0.600098 8.06713 0.600098Z" fill="#D64E52"/>
<path d="M44.0344 7.7999V23.7749H40.428V17.2499H33.2888V23.7749H29.6824V7.7999H33.2888V14.0999H40.428V7.7999H44.0344ZM47.7144 7.7999H51.3208V23.7749H47.7144V7.7999ZM62.5816 23.9999C60.9624 23.9999 59.564 23.6249 58.2392 22.9499C56.9144 22.2749 55.9576 21.2999 55.2216 20.0249C54.4856 18.7499 54.1176 17.3249 54.1176 15.7499C54.1176 14.1749 54.4856 12.7499 55.2216 11.4749C55.9576 10.1999 56.988 9.2249 58.2392 8.5499C59.4904 7.8749 60.9624 7.4999 62.5816 7.4999C63.9064 7.4999 65.1576 7.7249 66.2616 8.2499C67.3656 8.6999 68.2488 9.4499 69.0584 10.3499L66.7032 12.5249C65.6728 11.2499 64.348 10.6499 62.7288 10.6499C61.772 10.6499 60.8888 10.8749 60.1528 11.3249C59.4168 11.7749 58.828 12.3749 58.3864 13.1249C57.9448 13.8749 57.724 14.7749 57.724 15.7499C57.724 16.7249 57.9448 17.6249 58.3864 18.3749C58.828 19.1249 59.4168 19.7249 60.1528 20.1749C60.8888 20.6249 61.772 20.8499 62.7288 20.8499C64.2744 20.8499 65.5992 20.2499 66.7032 18.9749L69.0584 21.1499C68.3224 22.0499 67.3656 22.7999 66.2616 23.2499C65.1576 23.6999 63.9064 23.9999 62.5816 23.9999ZM81.4968 20.3249H74.2104L72.812 23.7749H69.132L76.124 7.7999H79.7304L86.7224 23.7749H82.8952L81.4968 20.3249ZM80.3192 17.5499L77.8168 11.4749L75.3144 17.5499H80.3192ZM93.42 23.9999C92.1688 23.9999 90.9912 23.8499 89.8136 23.4749C88.636 23.0999 87.7528 22.7249 87.0168 22.1249L88.268 19.3499C88.9304 19.8749 89.74 20.2499 90.6968 20.5499C91.6536 20.8499 92.5368 20.9999 93.4936 20.9999C94.524 20.9999 95.26 20.8499 95.7752 20.5499C96.2904 20.2499 96.5112 19.7999 96.5112 19.2749C96.5112 18.8999 96.364 18.5999 96.0696 18.2999C95.7752 18.0749 95.4072 17.8499 94.9656 17.6999C94.524 17.5499 93.8616 17.3999 93.1256 17.1749C91.948 16.8749 90.9912 16.5749 90.1816 16.2749C89.4456 15.9749 88.7832 15.5249 88.1944 14.8499C87.6056 14.1749 87.3848 13.3499 87.3848 12.2999C87.3848 11.3999 87.6056 10.4999 88.1208 9.7499C88.636 8.9999 89.372 8.3999 90.3288 7.9499C91.2856 7.4999 92.5368 7.2749 93.9352 7.2749C94.9656 7.2749 95.9224 7.4249 96.8792 7.6499C97.836 7.8749 98.6456 8.2499 99.3816 8.6999L98.2776 11.4749C96.8056 10.6499 95.4072 10.1999 93.9352 10.1999C92.9048 10.1999 92.1688 10.3499 91.6536 10.7249C91.1384 11.0249 90.9176 11.4749 90.9176 12.0749C90.9176 12.5999 91.212 13.0499 91.7272 13.2749C92.316 13.5749 93.1256 13.7999 94.3032 14.0249C95.4808 14.3249 96.4376 14.6249 97.2472 14.9249C98.0568 15.2249 98.6456 15.6749 99.2344 16.2749C99.7496 16.8749 100.044 17.7749 100.044 18.8249C100.044 19.7249 99.8232 20.5499 99.308 21.2999C98.7928 22.0499 98.0568 22.6499 97.0264 23.0999C96.0696 23.8499 94.892 23.9999 93.42 23.9999ZM123.154 23.7749V14.1749L118.518 22.0499H116.898L112.335 14.3999V23.7749H108.95V7.7999H111.967L117.855 17.6999L123.596 7.7999H126.54L126.614 23.7749H123.154ZM142.364 20.7749V23.7749H130.22V7.7999H142.07V10.7999H133.826V14.2499H141.113V17.0999H133.826V20.7749H142.364ZM148.178 23.9999C147.148 23.9999 146.118 23.7749 145.234 23.3999C144.351 23.0249 143.615 22.4249 143.026 21.6749L145.014 19.1999C145.897 20.3999 146.854 20.9249 147.958 20.9249C149.43 20.9249 150.166 20.0249 150.166 18.2999V10.7999H144.719V7.7999H153.846V18.1499C153.846 20.0999 153.404 21.5999 152.447 22.5749C151.417 23.5499 150.018 23.9999 148.178 23.9999ZM164.959 23.9999C163.34 23.9999 161.868 23.6249 160.543 22.9499C159.218 22.1999 158.188 21.2249 157.452 20.0249C156.716 18.7499 156.348 17.3249 156.348 15.8249C156.348 14.3249 156.716 12.8249 157.452 11.6249C158.188 10.3499 159.218 9.3749 160.543 8.6999C161.868 7.9499 163.34 7.6499 164.959 7.6499C166.578 7.6499 168.05 8.0249 169.375 8.6999C170.7 9.4499 171.73 10.4249 172.466 11.6249C173.202 12.8999 173.57 14.3249 173.57 15.8249C173.57 17.3999 173.202 18.8249 172.466 20.0249C171.73 21.2999 170.7 22.2749 169.375 22.9499C168.05 23.6999 166.578 23.9999 164.959 23.9999ZM164.959 20.8499C165.916 20.8499 166.726 20.6249 167.462 20.1749C168.198 19.7249 168.786 19.1249 169.228 18.3749C169.67 17.6249 169.89 16.7249 169.89 15.7499C169.89 14.7749 169.67 13.8749 169.228 13.1249C168.786 12.3749 168.198 11.7749 167.462 11.3249C166.726 10.8749 165.916 10.6499 164.959 10.6499C164.002 10.6499 163.193 10.8749 162.457 11.3249C161.721 11.7749 161.132 12.3749 160.69 13.1249C160.249 13.8749 160.028 14.7749 160.028 15.7499C160.028 16.7249 160.249 17.6249 160.69 18.3749C161.132 19.1249 161.721 19.7249 162.457 20.1749C163.193 20.6999 164.076 20.8499 164.959 20.8499ZM186.23 23.7749L183.212 19.3499H183.065H179.9V23.7749H176.294V7.7999H183.065C184.463 7.7999 185.641 8.0249 186.671 8.4749C187.702 8.9249 188.511 9.5999 189.026 10.4999C189.542 11.3999 189.836 12.3749 189.836 13.5749C189.836 14.7749 189.542 15.7499 189.026 16.6499C188.438 17.4749 187.702 18.1499 186.671 18.5999L190.204 23.6999H186.23V23.7749ZM186.156 13.5749C186.156 12.6749 185.862 11.9999 185.273 11.4749C184.684 11.0249 183.874 10.7249 182.77 10.7249H179.826V16.3499H182.77C183.874 16.3499 184.684 16.1249 185.273 15.5999C185.862 15.1499 186.156 14.4749 186.156 13.5749ZM204.85 20.7749V23.7749H192.706V7.7999H204.556V10.7999H196.313V14.2499H203.599V17.0999H196.313V20.7749H204.85ZM212.873 23.9999C211.622 23.9999 210.444 23.8499 209.266 23.4749C208.089 23.0999 207.206 22.7249 206.47 22.1249L207.721 19.3499C208.383 19.8749 209.193 20.2499 210.15 20.5499C211.106 20.8499 211.99 20.9999 212.946 20.9999C213.977 20.9999 214.713 20.8499 215.228 20.5499C215.743 20.2499 215.964 19.7999 215.964 19.2749C215.964 18.8999 215.817 18.5999 215.522 18.2999C215.228 17.9999 214.86 17.8499 214.418 17.6999C213.977 17.5499 213.314 17.3999 212.578 17.1749C211.401 16.8749 210.444 16.5749 209.634 16.2749C208.825 15.9749 208.236 15.5249 207.647 14.8499C207.132 14.1749 206.838 13.3499 206.838 12.2999C206.838 11.3999 207.058 10.4999 207.574 9.7499C208.089 8.9999 208.825 8.3999 209.782 7.9499C210.738 7.4999 211.99 7.2749 213.388 7.2749C214.418 7.2749 215.375 7.4249 216.332 7.6499C217.289 7.8749 218.098 8.2499 218.834 8.6999L217.73 11.4749C216.258 10.6499 214.86 10.1999 213.388 10.1999C212.358 10.1999 211.622 10.3499 211.106 10.7249C210.591 11.0249 210.37 11.4749 210.37 12.0749C210.37 12.5999 210.665 13.0499 211.18 13.2749C211.769 13.5749 212.578 13.7999 213.756 14.0249C214.934 14.3249 215.89 14.6249 216.7 14.9249C217.51 15.2249 218.098 15.6749 218.687 16.2749C219.202 16.8749 219.497 17.7749 219.497 18.8249C219.497 19.7249 219.276 20.5499 218.761 21.2999C218.246 22.0499 217.51 22.6499 216.479 23.0999C215.522 23.8499 214.271 23.9999 212.873 23.9999Z" fill="#070808"/>
<path d="M14.3515 24C12.7323 24 11.3339 23.625 10.0091 22.95C8.68425 22.275 7.72745 21.3 6.99145 20.025C6.25545 18.75 5.88745 17.325 5.88745 15.75C5.88745 14.175 6.25545 12.75 6.99145 11.475C7.72745 10.2 8.75785 9.225 10.0091 8.55C11.2603 7.875 12.7323 7.5 14.3515 7.5C15.6763 7.5 16.9275 7.725 18.0315 8.25C19.1355 8.7 20.0187 9.45 20.8283 10.35L18.4731 12.525C17.4427 11.25 16.1179 10.65 14.4987 10.65C13.5419 10.65 12.6587 10.875 11.9227 11.325C11.1867 11.775 10.5979 12.375 10.1563 13.125C9.71465 13.875 9.49385 14.775 9.49385 15.75C9.49385 16.725 9.71465 17.625 10.1563 18.375C10.5979 19.125 11.1867 19.725 11.9227 20.175C12.6587 20.625 13.5419 20.85 14.4987 20.85C16.0443 20.85 17.3691 20.25 18.4731 18.975L20.8283 21.15C20.0923 22.05 19.1355 22.8 18.0315 23.25C17.0011 23.775 15.7499 24 14.3515 24Z" fill="white"/>
</g>
</g>
<defs>
<clipPath id="clip0_47_171">
<rect width="219.6" height="28.8" fill="white" transform="translate(0 0.600098)"/>
</clipPath>
<clipPath id="clip1_47_171">
<rect width="219.6" height="28.8" fill="white" transform="translate(0 0.600098)"/>
</clipPath>
</defs>
</svg>
